<svg height="412.249" viewBox="0 0 866.483 412.249" width="866.483" xmlns="http://www.w3.org/2000/svg"><path d="m110.137 121h690.407" fill="none" stroke="#de787a" stroke-width="3"/><path d="m800.544 121-2.8 4.2 11.2-4.2-11.2-4.2z" fill="#de787a" stroke="#de787a" stroke-width="3"/><path d="m110.137 338.611h690.407" fill="none" stroke="#de787a" stroke-width="3"/><path d="m800.544 338.611-2.8 4.2 11.2-4.2-11.2-4.2z" fill="#de787a" stroke="#de787a" stroke-width="3"/><text transform="translate(50.136 120.5)"><tspan fill="#656565" font-family="Avenir-Medium" font-size="30" x="-32.235" y="9.5">Data</tspan></text><text transform="translate(821.136 152)"><tspan fill="#656565" font-family="Avenir-Medium" font-size="30" x="-33.33" y="9">Time</tspan></text><text transform="matrix(1 .01 -.01 1 821.136 370.375)"><tspan fill="#656565" font-family="Avenir-Medium" font-size="30" x="-33.33" y="9">Time</tspan></text><text transform="translate(253.444 21)"><tspan fill="#656565" font-family="Avenir-Medium" font-size="30" x="-8.34" y="9">1</tspan></text><text transform="translate(539.826 21)"><tspan fill="#656565" font-family="Avenir-Medium" font-size="30" x="-8.34" y="9">1</tspan></text><text transform="translate(679.078 21)"><tspan fill="#656565" font-family="Avenir-Medium" font-size="30" x="-8.34" y="9">1</tspan></text><text transform="translate(397.444 21)"><tspan fill="#656565" font-family="Avenir-Medium" font-size="30" x="-8.34" y="9">0</tspan></text><text transform="translate(59.501 338.111)"><tspan fill="#656565" font-family="Avenir-Medium" font-size="30" x="-31.65" y="-11.5">MSK </tspan><tspan fill="#656565" font-family="Avenir-Medium" font-size="30" x="-39.15" y="29.5">signal</tspan></text><g stroke-width="3"><path d="m110.137 194.375h72.807" fill="none" stroke="#656565"/><path d="m182.944 194.375v-146" fill="none" stroke="#656565"/><path d="m182.944 48.375h142" fill="none" stroke="#656565"/><path d="m324.944 48.375v146" fill="none" stroke="#656565"/><path d="m324.944 194.375h146" fill="none" stroke="#656565"/><path d="m470.944 194.375v-146" fill="none" stroke="#656565"/><path d="m470.944 48.375h287" fill="none" stroke="#656565"/><path d="m757.944 48.375v146" fill="none" stroke="#656565"/><path d="m182.944 338.611s13.729-69.626 35.303-69.136" fill="none" stroke="#656565"/><path d="m252.57 338.611s-13.729-69.626-35.303-69.136" fill="none" stroke="#656565"/><path d="m252.57 338.611s13.729 69.626 35.303 69.135" fill="none" stroke="#656565"/><path d="m322.196 338.611s-13.729 69.626-35.304 69.135" fill="none" stroke="#656565"/><path d="m470.7 338.611s13.729-69.626 35.303-69.136" fill="none" stroke="#656565"/><path d="m540.326 338.611s-13.73-69.626-35.304-69.136" fill="none" stroke="#656565"/><path d="m540.326 338.611s13.729 69.626 35.303 69.135" fill="none" stroke="#656565"/><path d="m609.951 338.611s-13.729 69.626-35.303 69.135" fill="none" stroke="#656565"/><path d="m609.952 338.611s13.729-69.626 35.303-69.136" fill="none" stroke="#656565"/><path d="m679.577 338.611s-13.729-69.626-35.303-69.136" fill="none" stroke="#656565"/><path d="m679.578 338.611s13.729 69.626 35.303 69.135" fill="none" stroke="#656565"/><path d="m749.203 338.611s-13.729 69.626-35.303 69.135" fill="none" stroke="#656565"/><path d="m322.196 338.611s7.32-69.626 18.824-69.136" fill="none" stroke="#656565"/><path d="m359.322 338.611s-7.321-69.626-18.825-69.136" fill="none" stroke="#656565"/><path d="m359.322 338.611s7.32 69.626 18.824 69.135" fill="none" stroke="#656565"/><path d="m396.448 338.611s-7.321 69.626-18.825 69.135" fill="none" stroke="#656565"/><path d="m396.448 338.611s7.32-69.626 18.824-69.136" fill="none" stroke="#656565"/><path d="m433.574 338.611s-7.321-69.626-18.825-69.136" fill="none" stroke="#656565"/><path d="m433.574 338.611s7.32 69.626 18.824 69.135" fill="none" stroke="#656565"/><path d="m470.7 338.611s-7.321 69.626-18.825 69.135" fill="none" stroke="#656565"/></g></svg>